<svg xmlns="http://www.w3.org/2000/svg" viewBox="0 0 64 64">
  <!--
    追番向导 favicon
    - 粉色圆角方 + 白心 + 右上角黄星，呼应站点 Logo
    - viewBox 64x64；浏览器自动缩放到 16/32/48
  -->
  <rect x="4" y="4" width="56" height="56" rx="14" ry="14" fill="#ff5b97" stroke="#2d1b3d" stroke-width="4"/>
  <path d="M32 48 C20 40 14 32 14 25 C14 20 18 16 23 16 C27 16 30 18 32 22 C34 18 37 16 41 16 C46 16 50 20 50 25 C50 32 44 40 32 48 Z" fill="#ffffff"/>
  <path d="M50 10 L52 15 L57 17 L52 19 L50 24 L48 19 L43 17 L48 15 Z" fill="#ffcc00" stroke="#2d1b3d" stroke-width="1.5" stroke-linejoin="round"/>
</svg>
